# xmcd
#
# Track frame offsets:
#	150
#	10674
#	20487
#	32015
#	47601
#	61091
#	72817
#	109524
#	121395
#	137408
#	148692
#	167010
#	184023
#
# Disc length: 2671 seconds
#
# Revision: 1
# Processed by: cddbd v1.5.2PL0 Copyright (c) Steve Scherf et al.
# Submitted via: EZCDAudioConverter 2.1.7.1
#
DISCID=a20a6d0d
DTITLE=Kaleidoscope - Kaleidoscope (1969)
DYEAR=1969
DGENRE=
TTITLE0=Hang Out
TTITLE1=Please Come Back
TTITLE2=A Hole In My Life
TTITLE3=Let Me Try
TTITLE4=I Think It's Allright
TTITLE5=Colours 
TTITLE6=Once Upon A Time There Was A World
TTITLE7=A New Man
TTITLE8=I'm Crazy
TTITLE9=I'm Here, He's Gone, She's Cryin'
TTITLE10=Bodo Molitor and Frank Tirado - Cairo Blues
TTITLE11=Bodo Molitor and Frank Tirado - Take It To The Limit
TTITLE12=Season Of The Witch [Live at Salvation Club, Mexico, 1969]
EXTD=
EXTT0=
EXTT1=
EXTT2=
EXTT3=
EXTT4=
EXTT5=
EXTT6=
EXTT7=
EXTT8=
EXTT9=
EXTT10=
EXTT11=
EXTT12=
PLAYORDER=
